# xmcd
# 
# Track frame offsets:
#     150
#     16157
#     38862
#     60750
#     79910
#     100377
#     124352
#     146822
#     167165
#     187612
#     207490
#     229272
#     247500
#     271047
#     291925
#     311822
# 
# Disc length: 4441
# 
# Revision: 5
# Processed by: cddbd v1.5.2PL0 Copyright (c) Steve Scherf et al.
# Submitted via: fre:ac v1.1beta1pre3
# 
DISCID=d9115710
DTITLE=高橋 真梨子 - the best ～new edition～ [DISC-1]
DYEAR=2004
DGENRE=JPOP
TTITLE0=桃色吐息
TTITLE1=連絡
TTITLE2=ランナー
TTITLE3=遙かな人へ
TTITLE4=ハート＆ハード ～時には強く時には優しく～
TTITLE5=テンダネス
TTITLE6=枯れない花
TTITLE7=蜃気楼
TTITLE8=無伴奏
TTITLE9=恋ことば
TTITLE10=貴方が生きたLove Song
TTITLE11=say my name
TTITLE12=グランパ
TTITLE13=for you...
TTITLE14=とまどい小夜曲(セレナーデ)
TTITLE15=漂流者へ
EXTD=
EXTT0=
EXTT1=
EXTT2=
EXTT3=
EXTT4=
EXTT5=
EXTT6=
EXTT7=
EXTT8=
EXTT9=
EXTT10=
EXTT11=
EXTT12=
EXTT13=
EXTT14=
EXTT15=
PLAYORDER=
